<?xml version="1.0" encoding="iso-8859-1"?>
<!-- Generator: Adobe Illustrator 19.0.0, SVG Export Plug-In . SVG Version: 6.00 Build 0)  -->
<svg version="1.1" id="Layer_1" xmlns="http://www.w3.org/2000/svg" xmlns:xlink="http://www.w3.org/1999/xlink" x="0px" y="0px"
	 viewBox="0 0 512 512" style="enable-background:new 0 0 512 512;" xml:space="preserve" fill='#00ADB5'>
<g>
	<g>
		<circle cx="448" cy="102.4" r="12.8"/>
	</g>
</g>
<g>
	<g>
		<circle cx="396.8" cy="102.4" r="12.8"/>
	</g>
</g>
<g>
	<g>
		<circle cx="345.6" cy="102.4" r="12.8"/>
	</g>
</g>
<g>
	<g>
		<path d="M512,358.392v-25.6h-26.888c-1.186-9.37-3.174-18.5-6.716-26.914l22.852-13.193l-12.8-22.178l-23.202,13.397
			c-5.623-7.39-12.177-13.943-19.567-19.567l13.389-23.194l-22.153-12.8l-13.201,22.852c-8.414-3.55-17.545-5.53-26.931-6.716V217.6
			h-25.6v26.888c-9.387,1.186-18.509,3.166-26.931,6.716l-13.201-22.852l-22.153,12.8l13.389,23.194
			c-7.39,5.623-13.943,12.177-19.567,19.567l-23.202-13.397l-12.8,22.178l22.852,13.193c-3.541,8.414-5.53,17.536-6.716,26.923H256
			v25.6h26.889c1.186,9.378,3.166,18.509,6.716,26.923l-22.852,13.193l12.8,22.178l23.202-13.397
			c5.623,7.39,12.177,13.943,19.567,19.567l-13.389,23.194l22.153,12.8l13.193-22.852c8.422,3.55,17.544,5.53,26.931,6.716V473.6
			h25.6v-26.889c9.387-1.186,18.509-3.166,26.931-6.716l13.193,22.852l22.153-12.8l-13.389-23.194
			c7.39-5.623,13.943-12.177,19.567-19.567l23.202,13.397l12.8-22.178l-22.852-13.193c3.55-8.414,5.53-17.536,6.716-26.923H512z
			 M384,422.4c-42.351,0-76.8-34.449-76.8-76.8s34.449-76.8,76.8-76.8s76.8,34.449,76.8,76.8S426.351,422.4,384,422.4z"/>
	</g>
</g>
<g>
	<g>
		<path d="M486.4,38.4H25.6C11.46,38.4,0,49.86,0,64v384c0,14.14,11.46,25.6,25.6,25.6h256V448h-256V166.4h460.8v76.8H512V64
			C512,49.86,500.54,38.4,486.4,38.4z M486.4,140.8H25.6V64h460.8V140.8z"/>
	</g>
</g>
<g>
</g>
<g>
</g>
<g>
</g>
<g>
</g>
<g>
</g>
<g>
</g>
<g>
</g>
<g>
</g>
<g>
</g>
<g>
</g>
<g>
</g>
<g>
</g>
<g>
</g>
<g>
</g>
<g>
</g>
</svg>
